<svg xmlns="http://www.w3.org/2000/svg" version="1.1" xmlns:xlink="http://www.w3.org/1999/xlink" xmlns:svgjs="http://svgjs.dev/svgjs" width="1500" height="1500" viewBox="0 0 1500 1500"><rect width="1500" height="1500" fill="#ffffff"></rect><g transform="matrix(0.6666666666666666,0,0,0.6666666666666666,249.39393939393943,629.2065558406646)"><svg viewBox="0 0 396 96" data-background-color="#ffffff" preserveAspectRatio="xMidYMid meet" height="363" width="1500" xmlns="http://www.w3.org/2000/svg" xmlns:xlink="http://www.w3.org/1999/xlink"><g id="tight-bounds" transform="matrix(1,0,0,1,0.2400000000000091,-0.08193950704051645)"><svg viewBox="0 0 395.52 96.16387901408102" height="96.16387901408102" width="395.52"><g><svg viewBox="0 0 536.6254910649197 130.47124999655836" height="96.16387901408102" width="395.52"><g transform="matrix(1,0,0,1,141.10549106491976,18.03184424699179)"><svg viewBox="0 0 395.52 94.40756150257478" height="94.40756150257478" width="395.52"><g id="textblocktransform"><svg viewBox="0 0 395.52 94.40756150257478" height="94.40756150257478" width="395.52" id="textblock"><g><svg viewBox="0 0 395.52 50.91892754265455" height="50.91892754265455" width="395.52"><g transform="matrix(1,0,0,1,0,0)"><svg width="395.52" viewBox="1.75 -28.55 225.63 29.05" height="50.91892754265455" data-palette-color="#24a8df"><g class="wordmark-text-0" data-fill-palette-color="primary" id="text-0"><path d="M22.3 0L10.25 0 10.25-0.8 14.15-2.45 14.15-13.35 5-25.7 1.75-27.2 1.75-28 13-28 13-27.2 10-25.7 10-25.5 17.25-15.85 23.85-25.45 23.85-25.6 20.7-27.2 20.7-28 30.5-28 30.5-27.2 27.2-25.65 18.4-13.15 18.4-2.45 22.3-0.8 22.3 0ZM50 0.5L50 0.5Q45.9 0.5 42.67-1.38 39.45-3.25 37.6-6.53 35.75-9.8 35.75-14L35.75-14Q35.75-18.2 37.6-21.5 39.45-24.8 42.67-26.68 45.9-28.55 50-28.55L50-28.55Q54.15-28.55 57.37-26.68 60.6-24.8 62.47-21.5 64.35-18.2 64.35-14L64.35-14Q64.35-9.8 62.47-6.53 60.6-3.25 57.37-1.38 54.15 0.5 50 0.5ZM50.85-2L50.85-2Q55.15-2 57.6-4.95 60.05-7.9 60.05-12.75L60.05-12.75Q60.05-16.7 58.7-19.7 57.35-22.7 54.92-24.38 52.5-26.05 49.35-26.05L49.35-26.05Q45.05-26.05 42.55-23.15 40.05-20.25 40.05-15.4L40.05-15.4Q40.05-11.4 41.42-8.38 42.8-5.35 45.22-3.68 47.65-2 50.85-2ZM86.39 0.5L86.39 0.5Q83.05 0.5 80.39-0.63 77.75-1.75 76.22-4.23 74.69-6.7 74.69-10.7L74.69-10.7 74.69-25.55 71.09-27.2 71.09-28 82.55-28 82.55-27.2 78.94-25.55 78.94-11.05Q78.94-6.1 81.14-4.13 83.34-2.15 87.09-2.15L87.09-2.15Q89.3-2.15 91.09-3 92.89-3.85 93.97-5.58 95.05-7.3 95.05-10L95.05-10 95.05-25.65 90.75-27.2 90.75-28 101.44-28 101.44-27.2 97.89-25.6 97.89-10.7Q97.89-6.7 96.39-4.23 94.89-1.75 92.32-0.63 89.75 0.5 86.39 0.5ZM126.64 0L113.44 0 113.44-0.8 117.89-2.45 117.89-25.5 110.19-25.5 107.74-19.65 106.94-19.65 106.94-28 133.14-28 133.14-19.65 132.34-19.65 129.84-25.5 122.14-25.5 122.14-2.45 126.64-0.8 126.64 0ZM153.94 0.5L153.94 0.5Q150.59 0.5 147.94-0.63 145.29-1.75 143.76-4.23 142.24-6.7 142.24-10.7L142.24-10.7 142.24-25.55 138.64-27.2 138.64-28 150.09-28 150.09-27.2 146.49-25.55 146.49-11.05Q146.49-6.1 148.69-4.13 150.89-2.15 154.64-2.15L154.64-2.15Q156.84-2.15 158.64-3 160.44-3.85 161.51-5.58 162.59-7.3 162.59-10L162.59-10 162.59-25.65 158.29-27.2 158.29-28 168.99-28 168.99-27.2 165.44-25.6 165.44-10.7Q165.44-6.7 163.94-4.23 162.44-1.75 159.86-0.63 157.29 0.5 153.94 0.5ZM187.14 0L175.49 0 175.49-0.8 179.04-2.45 179.04-25.55 175.49-27.2 175.49-28 185.69-28Q190.89-28 193.61-26.4 196.34-24.8 196.34-21.55L196.34-21.55Q196.34-19.15 194.89-17.4 193.44-15.65 190.89-14.95L190.89-14.95Q194.64-14.4 196.79-12.6 198.94-10.8 198.94-8.05L198.94-8.05Q198.94-5.75 197.46-3.93 195.99-2.1 193.31-1.05 190.64 0 187.14 0L187.14 0ZM185.04-25.5L185.04-25.5 183.29-25.5 183.29-15.75 185.14-15.75Q188.14-15.75 190.06-16.93 191.99-18.1 191.99-20.75L191.99-20.75Q191.99-23.1 190.21-24.3 188.44-25.5 185.04-25.5ZM186.69-13.25L186.69-13.25 183.29-13.25 183.29-2.5 187.04-2.5Q190.34-2.5 192.41-3.78 194.49-5.05 194.49-7.85L194.49-7.85Q194.49-10.9 192.39-12.08 190.29-13.25 186.69-13.25ZM227.38 0L204.78 0 204.78-0.8 208.34-2.45 208.34-25.55 204.78-27.2 204.78-28 226.13-28 226.13-20.9 225.34-20.9 222.94-25.5 212.59-25.5 212.59-15.75 220.13-15.75 221.63-19.15 222.44-19.15 222.44-9.9 221.63-9.9 220.13-13.25 212.59-13.25 212.59-2.5 224.09-2.5 226.59-7.9 227.38-7.9 227.38 0Z" fill="#24a8df" data-fill-palette-color="primary"></path></g></svg></g></svg></g><g transform="matrix(1,0,0,1,0,62.93966428121426)"><svg viewBox="0 0 167.99307540704632 31.467897221360513" height="31.467897221360513" width="167.99307540704632"><g transform="matrix(1,0,0,1,0,0)"><svg width="167.99307540704632" viewBox="-0.35 -40.95 221.54 41.50000000000001" height="31.467897221360513" data-palette-color="#77d4fc"><path d="M-0.35-25.4L-0.35-27.75 11.3-27.75 11.3-25.4 7.5-24.8 11.65-10.1 13.1-3.75 14.55-10.15 19.35-27.75 24.25-27.75 29.2-10.15 30.65-3.7 32.25-10.1 36.3-24.75 32.5-25.4 32.5-27.75 42.65-27.75 42.65-25.4 40-24.75 32.25 0.4 27.55 0.4 22.25-17.25 20.95-23.45 19.9-17.25 14.85 0.4 10.2 0.4 2.2-24.8-0.35-25.4ZM56.5 0.55Q50.45 0.55 47.27-3.4 44.1-7.35 44.1-13.95L44.1-13.95Q44.1-18.3 45.75-21.6 47.4-24.9 50.37-26.7 53.35-28.5 57.15-28.5L57.15-28.5Q61.8-28.5 64.37-25.93 66.95-23.35 67.1-18.55L67.1-18.55Q67.1-15.5 66.75-13.9L66.75-13.9 49.55-13.9Q49.65-8.95 51.85-5.93 54.05-2.9 58.1-2.9L58.1-2.9Q60.1-2.9 62.27-3.63 64.45-4.35 65.65-5.35L65.65-5.35 66.6-3.15Q65.15-1.65 62.3-0.55 59.45 0.55 56.5 0.55L56.5 0.55ZM49.6-16.55L61.6-16.55Q61.75-17.6 61.75-18.7L61.75-18.7Q61.7-21.95 60.37-23.83 59.05-25.7 56.2-25.7L56.2-25.7Q53.3-25.7 51.57-23.6 49.85-21.5 49.6-16.55L49.6-16.55ZM69.05-37.9L69.05-40 77.05-40.95 77.15-40.95 78.3-40.2 78.3-25.15Q79.8-26.6 81.87-27.55 83.95-28.5 86.5-28.5L86.5-28.5Q89.5-28.5 91.97-27.05 94.45-25.6 95.92-22.55 97.4-19.5 97.4-14.85L97.4-14.85Q97.4-10.55 95.62-7.05 93.85-3.55 90.55-1.5 87.25 0.55 82.9 0.55L82.9 0.55Q79.45 0.55 76.6-0.13 73.75-0.8 73.15-1.35L73.15-1.35 73.15-37.35 69.05-37.9ZM84.45-24.95Q82.55-24.95 80.92-24.08 79.3-23.2 78.3-22.1L78.3-22.1 78.3-3.7Q78.6-3 80.02-2.58 81.45-2.15 83.25-2.15L83.25-2.15Q87.1-2.15 89.45-5.25 91.8-8.35 91.8-14.3L91.8-14.3Q91.8-19.65 89.75-22.3 87.7-24.95 84.45-24.95L84.45-24.95ZM113.99-2.95L113.99-34.5 105.39-34.2 103.64-23.75 100.34-23.75 101.19-37.15 132.34-37.15 132.94-23.75 129.79-23.75 128.14-34.2 119.49-34.5 119.49-2.95 126.59-2.45 126.59 0 107.49 0 107.49-2.45 113.99-2.95ZM159.09 0.45Q157.69 0.45 157.02-0.1 156.34-0.65 156.34-1.9L156.34-1.9 156.34-3.6Q154.69-1.95 152.22-0.7 149.74 0.55 147.24 0.55L147.24 0.55Q142.59 0.55 140.64-1.95 138.69-4.45 138.69-10.2L138.69-10.2 138.69-24.7 135.89-25.5 135.89-27.7 142.89-28.35 142.94-28.35 143.89-27.75 143.89-10.6Q143.89-7.7 144.31-6.08 144.74-4.45 145.81-3.68 146.89-2.9 148.94-2.9L148.94-2.9Q150.94-2.9 152.69-3.75 154.44-4.6 155.74-5.75L155.74-5.75 155.74-24.7 152.14-25.5 152.14-27.7 159.74-28.35 159.79-28.35 160.94-27.75 160.94-2.55 163.94-2.55 163.89-0.3Q162.49 0.05 161.47 0.25 160.44 0.45 159.09 0.45L159.09 0.45ZM165.59-37.9L165.59-40 173.59-40.95 173.69-40.95 174.84-40.2 174.84-25.15Q176.34-26.6 178.41-27.55 180.49-28.5 183.04-28.5L183.04-28.5Q186.04-28.5 188.51-27.05 190.99-25.6 192.46-22.55 193.94-19.5 193.94-14.85L193.94-14.85Q193.94-10.55 192.16-7.05 190.39-3.55 187.09-1.5 183.79 0.55 179.44 0.55L179.44 0.55Q175.99 0.55 173.14-0.13 170.29-0.8 169.69-1.35L169.69-1.35 169.69-37.35 165.59-37.9ZM180.99-24.95Q179.09-24.95 177.46-24.08 175.84-23.2 174.84-22.1L174.84-22.1 174.84-3.7Q175.14-3 176.56-2.58 177.99-2.15 179.79-2.15L179.79-2.15Q183.64-2.15 185.99-5.25 188.34-8.35 188.34-14.3L188.34-14.3Q188.34-19.65 186.29-22.3 184.24-24.95 180.99-24.95L180.99-24.95ZM210.59 0.55Q204.53 0.55 201.36-3.4 198.19-7.35 198.19-13.95L198.19-13.95Q198.19-18.3 199.84-21.6 201.48-24.9 204.46-26.7 207.44-28.5 211.23-28.5L211.23-28.5Q215.88-28.5 218.46-25.93 221.03-23.35 221.19-18.55L221.19-18.55Q221.19-15.5 220.84-13.9L220.84-13.9 203.63-13.9Q203.73-8.95 205.94-5.93 208.13-2.9 212.19-2.9L212.19-2.9Q214.19-2.9 216.36-3.63 218.53-4.35 219.74-5.35L219.74-5.35 220.69-3.15Q219.24-1.65 216.38-0.55 213.53 0.55 210.59 0.55L210.59 0.55ZM203.69-16.55L215.69-16.55Q215.84-17.6 215.84-18.7L215.84-18.7Q215.78-21.95 214.46-23.83 213.13-25.7 210.28-25.7L210.28-25.7Q207.38-25.7 205.66-23.6 203.94-21.5 203.69-16.55L203.69-16.55Z" opacity="1" transform="matrix(1,0,0,1,0,0)" fill="#77d4fc" class="slogan-text-1" data-fill-palette-color="secondary" id="text-1"></path></svg></g></svg></g></svg></g></svg></g><g><svg viewBox="0 0 129.08475432636004 130.47124999655836" height="130.47124999655836" width="129.08475432636004"><g><svg xmlns="http://www.w3.org/2000/svg" xmlns:xlink="http://www.w3.org/1999/xlink" version="1.1" x="0" y="0" viewBox="5.616 5.138938172255214 88.76860081431298 89.72206182774478" enable-background="new 0 0 100 100" xml:space="preserve" height="130.47124999655836" width="129.08475432636004" class="icon-icon-0" data-fill-palette-color="accent" id="icon-0"><path d="M93.895 8.549c-0.435-0.501-1.089-0.755-1.749-0.674l-6.479 0.776L49.457 6.309c-0.967-0.07-1.828 0.568-2.066 1.5l-0.415-1.215c-0.248-0.874-1.016-1.462-1.961-1.455L28.978 5.431c-0.591 0.011-1.147 0.283-1.52 0.743-0.372 0.461-0.521 1.062-0.406 1.643l0.338 1.721-0.393 0.115c-1.56 0.098-1.499 2.242-1.25 2.771l3.467 8.072c-8.047 0.421-13.583 5.189-16.654 11.097-2.985 5.742-3.911 12.786-2.608 19.834 1.124 6.083 3.844 11.471 7.499 15.511-7.854 1.367-11.835 3.511-11.835 6.39v13.897c0 7.422 26.021 7.636 28.987 7.636s28.987-0.214 28.987-7.636v-3.68l9.14 1.803c0.128 0.025 0.731 0.016 0.898-0.028l16.174-4.276c0.877-0.232 1.489-1.026 1.489-1.934V21.756l3.026-11.382C94.488 9.733 94.33 9.05 93.895 8.549zM75.727 12.017c-0.404 0.056-0.735 0.352-0.835 0.747l-1.824 7.253-1.794-5.638c-0.124-0.39-0.473-0.665-0.88-0.694L50.388 12.23l0.466-1.822L75.727 12.017zM30.361 12.836c0.039-0.013 0.073-0.034 0.11-0.05l39.103 2.844 2.377 7.473-38.738-3.594L30.361 12.836zM43.547 9.166l0.742 2.62-12.59-0.916c-0.004-0.103-0.011-0.206-0.032-0.31l-0.23-1.174L43.547 9.166zM16.109 33.438c2.49-4.79 7.808-9.146 13.352-8.953 8.785 0.305 16.994 8.517 19.081 19.811 2.322 12.565-3.563 24.225-13.117 25.99-0.81 0.149-1.637 0.226-2.459 0.226-8.791 0-16.994-8.517-19.081-19.811C12.743 44.524 13.533 38.394 16.109 33.438zM32.965 74.511c1.065 0 2.138-0.099 3.186-0.292 1.5-0.277 2.927-0.747 4.271-1.381 1.238 0.285 1.658 0.578 1.712 0.591-0.233 0.438-2.95 1.223-7.531 1.223-4.202 0-6.813-0.657-7.4-1.105C29.069 74.174 31.004 74.511 32.965 74.511zM21.262 70.405c1.543 1.14 3.181 2.073 4.887 2.756-0.039 0.097-0.068 0.199-0.068 0.315 0 2.114 7.65 2.175 8.522 2.175s8.522-0.061 8.522-2.175c0-0.542-0.467-0.969-1.425-1.312 1.061-0.61 2.063-1.325 2.999-2.14l-0.007 0.081c7.496-0.044 14.629 2.112 14.629 3.229 0 1.945-10.293 3.628-24.718 3.628-14.298 0-24.666-1.917-24.666-3.592C9.937 71.951 17.875 70.208 21.262 70.405zM59.59 85.051c-3.49 1.969-12.795 3.697-24.987 3.697S13.106 87.02 9.615 85.051v-1.007c4.646 2.351 15.048 3.594 24.987 3.594s20.341-1.244 24.987-3.594V85.051zM59.59 82.942c-3.49 1.969-12.795 3.697-24.987 3.697S13.106 84.91 9.615 82.942v-1.007c4.646 2.351 15.048 3.595 24.987 3.595s20.341-1.244 24.987-3.595V82.942zM59.59 80.833c-3.49 1.969-12.795 3.698-24.987 3.698s-21.497-1.729-24.987-3.698v-1.007c4.646 2.351 15.048 3.595 24.987 3.595s20.341-1.244 24.987-3.595V80.833zM59.59 78.723c-3.49 1.969-12.795 3.698-24.987 3.698s-21.497-1.729-24.987-3.698V77.6c7.414 3.24 22.751 3.364 24.987 3.364S52.176 80.84 59.59 77.6V78.723zM34.603 90.861c-15.345 0-23.826-2.524-24.987-3.882v-0.825c4.646 2.351 15.048 3.594 24.987 3.594s20.341-1.244 24.987-3.594v0.825C58.428 88.338 49.947 90.861 34.603 90.861zM63.59 73.328c0-3.413-5.259-5.732-15.614-6.909 4.217-5.83 6.104-14.168 4.499-22.851-1.91-10.336-8.424-18.673-16.31-21.776l35.952 3.335v56.023l-8.527-1.682V73.328zM74.117 81.053V25.062l13.174-2.217V77.57L74.117 81.053zM87.407 20.797l-13.023 2.192 2.283-9.081 13.027-1.71L87.407 20.797zM31.818 57.129c2.401 0.027 5.042-1.951 6.107-4 1.062-2.043 1.392-4.544 0.93-7.044-0.88-4.763-4.349-8.219-8.248-8.219-0.386 0-0.774 0.035-1.154 0.105-4.213 0.779-6.852 5.686-5.881 10.938C24.452 53.673 27.92 57.085 31.818 57.129zM36.888 46.448c0.381 2.063 0.12 4.108-0.738 5.758-0.814 1.567-2.63 2.794-3.937 2.887V40.158C34.444 40.971 36.326 43.406 36.888 46.448zM30.213 39.902v14.936c-2.231-0.812-4.113-3.247-4.675-6.291C24.969 45.467 25.844 40.25 30.213 39.902z" fill="#24a8df" data-fill-palette-color="accent"></path></svg></g></svg></g></svg></g><defs></defs></svg><rect width="395.52" height="96.16387901408102" fill="none" stroke="none" visibility="hidden"></rect></g></svg></g></svg>